G04*
G04 #@! TF.GenerationSoftware,Altium Limited,Altium Designer,20.0.10 (225)*
G04*
G04 Layer_Physical_Order=2*
G04 Layer_Color=16711680*
%FSLAX25Y25*%
%MOIN*%
G70*
G01*
G75*
%ADD23C,0.05906*%
%ADD54C,0.01968*%
%ADD56C,0.07087*%
%ADD57C,0.15748*%
%ADD58R,0.07500X0.07500*%
%ADD59C,0.07500*%
%ADD60C,0.10400*%
%ADD61R,0.06693X0.06693*%
%ADD62C,0.06693*%
%ADD63R,0.07087X0.07087*%
%ADD64O,0.03051X0.06102*%
%ADD65O,0.05118X0.03150*%
%ADD66R,0.05906X0.05906*%
%ADD67C,0.05000*%
G36*
X323383Y104964D02*
X301009D01*
X300700Y105464D01*
X300821Y106693D01*
X300688Y108044D01*
X300294Y109342D01*
X299654Y110539D01*
X298793Y111588D01*
X297744Y112449D01*
X296547Y113089D01*
X295248Y113483D01*
X293898Y113616D01*
X292547Y113483D01*
X291248Y113089D01*
X290051Y112449D01*
X289002Y111588D01*
X288141Y110539D01*
X287502Y109342D01*
X287108Y108044D01*
X286975Y106693D01*
X287096Y105464D01*
X286786Y104964D01*
X151464D01*
X151166Y105365D01*
X151278Y105736D01*
X151411Y107087D01*
X151278Y108437D01*
X150884Y109736D01*
X150244Y110933D01*
X149383Y111982D01*
X148334Y112843D01*
X147137Y113483D01*
X145839Y113877D01*
X144488Y114010D01*
X143138Y113877D01*
X141839Y113483D01*
X140642Y112843D01*
X139593Y111982D01*
X138732Y110933D01*
X138092Y109736D01*
X137698Y108437D01*
X137565Y107087D01*
X137698Y105736D01*
X137811Y105365D01*
X137513Y104964D01*
X104964D01*
Y255867D01*
X105426Y256059D01*
X114600Y246884D01*
X115628Y246095D01*
X116825Y245599D01*
X118110Y245430D01*
X156605D01*
X156819Y244978D01*
X156742Y244885D01*
X156048Y243585D01*
X155873Y243010D01*
X155640Y243081D01*
X154173Y243225D01*
X152707Y243081D01*
X151297Y242653D01*
X149997Y241958D01*
X148858Y241024D01*
X147924Y239885D01*
X147229Y238585D01*
X146801Y237175D01*
X146657Y235709D01*
X146801Y234242D01*
X147229Y232832D01*
X147924Y231533D01*
X148600Y230709D01*
X147924Y229885D01*
X147229Y228585D01*
X146801Y227175D01*
X146657Y225709D01*
X146801Y224242D01*
X147229Y222832D01*
X147924Y221533D01*
X148600Y220709D01*
X147924Y219885D01*
X147229Y218585D01*
X146801Y217175D01*
X146657Y215709D01*
X146801Y214242D01*
X147229Y212832D01*
X147924Y211533D01*
X148600Y210709D01*
X147924Y209885D01*
X147229Y208585D01*
X146801Y207175D01*
X146657Y205709D01*
X146801Y204242D01*
X147229Y202832D01*
X147924Y201533D01*
X148600Y200709D01*
X147924Y199885D01*
X147229Y198585D01*
X146801Y197175D01*
X146657Y195709D01*
X146801Y194242D01*
X147229Y192832D01*
X147924Y191533D01*
X148600Y190709D01*
X147924Y189885D01*
X147229Y188585D01*
X146801Y187175D01*
X146657Y185709D01*
X146801Y184242D01*
X147229Y182832D01*
X147924Y181533D01*
X148858Y180394D01*
X149997Y179459D01*
X151297Y178764D01*
X152707Y178337D01*
X154173Y178192D01*
X155141Y178287D01*
X155512Y177952D01*
Y173228D01*
X170472D01*
Y173236D01*
X170874Y173534D01*
X171526Y173337D01*
X172992Y173192D01*
X174459Y173337D01*
X175869Y173764D01*
X177168Y174459D01*
X177992Y175135D01*
X178816Y174459D01*
X180116Y173764D01*
X181526Y173337D01*
X182992Y173192D01*
X184458Y173337D01*
X185869Y173764D01*
X187168Y174459D01*
X188307Y175394D01*
X189242Y176533D01*
X189506Y177027D01*
X190147Y177165D01*
X190701Y176740D01*
X191806Y176282D01*
X192492Y176192D01*
Y180709D01*
Y185225D01*
X191806Y185135D01*
X190701Y184677D01*
X190147Y184252D01*
X189506Y184391D01*
X189242Y184885D01*
X188307Y186024D01*
X187168Y186958D01*
X185869Y187653D01*
X184458Y188081D01*
X182992Y188225D01*
X181526Y188081D01*
X180116Y187653D01*
X178816Y186958D01*
X177992Y186282D01*
X177168Y186958D01*
X175869Y187653D01*
X174459Y188081D01*
X172992Y188225D01*
X171526Y188081D01*
X170874Y187883D01*
X170472Y188181D01*
Y188189D01*
X161238D01*
X161118Y188585D01*
X160423Y189885D01*
X159747Y190709D01*
X160423Y191533D01*
X161118Y192832D01*
X161545Y194242D01*
X161690Y195709D01*
X161545Y197175D01*
X161118Y198585D01*
X160423Y199885D01*
X159747Y200709D01*
X160423Y201533D01*
X161118Y202832D01*
X161545Y204242D01*
X161690Y205709D01*
X161545Y207175D01*
X161118Y208585D01*
X160423Y209885D01*
X159747Y210709D01*
X160423Y211533D01*
X161118Y212832D01*
X161545Y214242D01*
X161690Y215709D01*
X161545Y217175D01*
X161118Y218585D01*
X160423Y219885D01*
X159747Y220709D01*
X160423Y221533D01*
X161118Y222832D01*
X161545Y224242D01*
X161690Y225709D01*
X161545Y227175D01*
X161118Y228585D01*
X160423Y229885D01*
X159747Y230709D01*
X160423Y231533D01*
X161118Y232832D01*
X161292Y233407D01*
X161526Y233337D01*
X162992Y233192D01*
X164459Y233337D01*
X165869Y233764D01*
X167168Y234459D01*
X168307Y235394D01*
X169242Y236533D01*
X169506Y237027D01*
X170147Y237165D01*
X170701Y236740D01*
X171806Y236282D01*
X172492Y236192D01*
Y240709D01*
X173492D01*
Y236192D01*
X174178Y236282D01*
X175283Y236740D01*
X175837Y237165D01*
X176478Y237027D01*
X176742Y236533D01*
X177677Y235394D01*
X178816Y234459D01*
X180116Y233764D01*
X181526Y233337D01*
X182992Y233192D01*
X184458Y233337D01*
X185869Y233764D01*
X187168Y234459D01*
X187992Y235135D01*
X188816Y234459D01*
X190116Y233764D01*
X190772Y233565D01*
X191019Y232968D01*
X190548Y232085D01*
X190120Y230675D01*
X189976Y229209D01*
X190120Y227742D01*
X190548Y226332D01*
X191242Y225033D01*
X192177Y223894D01*
X193316Y222959D01*
X194616Y222264D01*
X196026Y221837D01*
X197492Y221692D01*
X198959Y221837D01*
X200369Y222264D01*
X201668Y222959D01*
X202492Y223635D01*
X203316Y222959D01*
X204616Y222264D01*
X206026Y221837D01*
X207492Y221692D01*
X208959Y221837D01*
X210369Y222264D01*
X211668Y222959D01*
X212807Y223894D01*
X213742Y225033D01*
X214437Y226332D01*
X214864Y227742D01*
X215009Y229209D01*
X214864Y230675D01*
X214437Y232085D01*
X214014Y232875D01*
X214250Y233316D01*
X214458Y233337D01*
X215869Y233764D01*
X217168Y234459D01*
X217992Y235135D01*
X218816Y234459D01*
X220116Y233764D01*
X221526Y233337D01*
X222992Y233192D01*
X224459Y233337D01*
X225869Y233764D01*
X227168Y234459D01*
X227992Y235135D01*
X228816Y234459D01*
X230116Y233764D01*
X231526Y233337D01*
X232992Y233192D01*
X234458Y233337D01*
X235869Y233764D01*
X237168Y234459D01*
X237992Y235135D01*
X238816Y234459D01*
X240116Y233764D01*
X241526Y233337D01*
X242992Y233192D01*
X244459Y233337D01*
X245869Y233764D01*
X247168Y234459D01*
X247992Y235135D01*
X248816Y234459D01*
X250116Y233764D01*
X251526Y233337D01*
X252992Y233192D01*
X254458Y233337D01*
X255869Y233764D01*
X257168Y234459D01*
X257992Y235135D01*
X258816Y234459D01*
X260116Y233764D01*
X261526Y233337D01*
X262992Y233192D01*
X264458Y233337D01*
X265550Y233668D01*
X265951Y233267D01*
X265620Y232175D01*
X265476Y230709D01*
X265620Y229242D01*
X266048Y227832D01*
X266742Y226533D01*
X267419Y225709D01*
X266742Y224885D01*
X266048Y223585D01*
X265620Y222175D01*
X265476Y220709D01*
X265620Y219242D01*
X266048Y217832D01*
X266742Y216533D01*
X267677Y215394D01*
X268816Y214459D01*
X269310Y214195D01*
X269449Y213554D01*
X269024Y213000D01*
X268566Y211895D01*
X268476Y211209D01*
X272992D01*
X277509D01*
X277418Y211895D01*
X276961Y213000D01*
X276536Y213554D01*
X276674Y214195D01*
X277168Y214459D01*
X278307Y215394D01*
X279242Y216533D01*
X279937Y217832D01*
X280364Y219242D01*
X280509Y220709D01*
X280364Y222175D01*
X279937Y223585D01*
X279242Y224885D01*
X278566Y225709D01*
X279242Y226533D01*
X279937Y227832D01*
X280364Y229242D01*
X280509Y230709D01*
X280364Y232175D01*
X279937Y233585D01*
X279242Y234885D01*
X278566Y235709D01*
X279242Y236533D01*
X279937Y237832D01*
X280364Y239242D01*
X280509Y240709D01*
X280364Y242175D01*
X279937Y243585D01*
X279242Y244885D01*
X278307Y246024D01*
X277168Y246958D01*
X275869Y247653D01*
X274459Y248081D01*
X272992Y248225D01*
X271526Y248081D01*
X270116Y247653D01*
X268816Y246958D01*
X267992Y246282D01*
X267168Y246958D01*
X265869Y247653D01*
X264458Y248081D01*
X262992Y248225D01*
X261526Y248081D01*
X260116Y247653D01*
X258816Y246958D01*
X257992Y246282D01*
X257168Y246958D01*
X255869Y247653D01*
X254458Y248081D01*
X252992Y248225D01*
X251526Y248081D01*
X250116Y247653D01*
X248816Y246958D01*
X247992Y246282D01*
X247168Y246958D01*
X245869Y247653D01*
X244459Y248081D01*
X242992Y248225D01*
X241526Y248081D01*
X240116Y247653D01*
X238816Y246958D01*
X238456Y246663D01*
X237956Y246899D01*
Y254803D01*
X237787Y256088D01*
X237291Y257285D01*
X236502Y258313D01*
X227132Y267683D01*
X226845Y267903D01*
X226934Y268395D01*
X227129Y268454D01*
X228465Y269168D01*
X229635Y270129D01*
X230596Y271299D01*
X231310Y272635D01*
X231749Y274084D01*
X231897Y275590D01*
X231749Y277098D01*
X231310Y278547D01*
X230596Y279882D01*
X229635Y281052D01*
X228465Y282013D01*
X227129Y282727D01*
X225680Y283166D01*
X224173Y283315D01*
X222666Y283166D01*
X221217Y282727D01*
X220253Y282211D01*
X219952Y282617D01*
X221741Y284406D01*
X269598D01*
X283225Y270779D01*
Y200875D01*
X280621Y198271D01*
X209055D01*
X207770Y198102D01*
X206573Y197606D01*
X205545Y196817D01*
X199482Y190754D01*
X198693Y189726D01*
X198197Y188529D01*
X198028Y187244D01*
Y186312D01*
X197677Y186024D01*
X196742Y184885D01*
X196478Y184391D01*
X195837Y184252D01*
X195283Y184677D01*
X194178Y185135D01*
X193492Y185225D01*
Y180709D01*
Y176192D01*
X194178Y176282D01*
X195283Y176740D01*
X195837Y177165D01*
X196478Y177027D01*
X196742Y176533D01*
X197677Y175394D01*
X198816Y174459D01*
X200116Y173764D01*
X201526Y173337D01*
X202992Y173192D01*
X204458Y173337D01*
X205869Y173764D01*
X207168Y174459D01*
X207992Y175135D01*
X208816Y174459D01*
X210116Y173764D01*
X211526Y173337D01*
X212992Y173192D01*
X214458Y173337D01*
X215869Y173764D01*
X217168Y174459D01*
X217992Y175135D01*
X218816Y174459D01*
X220116Y173764D01*
X221526Y173337D01*
X222992Y173192D01*
X224459Y173337D01*
X225869Y173764D01*
X227168Y174459D01*
X227992Y175135D01*
X228816Y174459D01*
X230116Y173764D01*
X231526Y173337D01*
X232992Y173192D01*
X234458Y173337D01*
X235869Y173764D01*
X237168Y174459D01*
X237992Y175135D01*
X238816Y174459D01*
X240116Y173764D01*
X241526Y173337D01*
X242992Y173192D01*
X244459Y173337D01*
X245869Y173764D01*
X247168Y174459D01*
X247992Y175135D01*
X248816Y174459D01*
X250116Y173764D01*
X251526Y173337D01*
X252992Y173192D01*
X254458Y173337D01*
X255869Y173764D01*
X257168Y174459D01*
X257992Y175135D01*
X258816Y174459D01*
X260116Y173764D01*
X261526Y173337D01*
X262992Y173192D01*
X264458Y173337D01*
X265869Y173764D01*
X267168Y174459D01*
X267992Y175135D01*
X268816Y174459D01*
X270116Y173764D01*
X271526Y173337D01*
X272992Y173192D01*
X274459Y173337D01*
X275869Y173764D01*
X277168Y174459D01*
X278307Y175394D01*
X279242Y176533D01*
X279937Y177832D01*
X280364Y179242D01*
X280509Y180709D01*
X280364Y182175D01*
X279937Y183585D01*
X279242Y184885D01*
X278307Y186024D01*
X277168Y186958D01*
X275869Y187653D01*
X275241Y187843D01*
X275315Y188343D01*
X282677D01*
X283962Y188513D01*
X285159Y189008D01*
X286187Y189797D01*
X291699Y195309D01*
X292488Y196337D01*
X292984Y197534D01*
X293153Y198819D01*
Y272835D01*
X292984Y274119D01*
X292488Y275317D01*
X291699Y276344D01*
X275163Y292880D01*
X274135Y293669D01*
X272938Y294165D01*
X271654Y294334D01*
X219685D01*
X218400Y294165D01*
X217203Y293669D01*
X216175Y292880D01*
X210663Y287368D01*
X209875Y286340D01*
X209379Y285143D01*
X209209Y283858D01*
Y281461D01*
X208711Y281052D01*
X208127Y280341D01*
X204673D01*
Y275590D01*
Y270841D01*
X208127D01*
X208711Y270129D01*
X209311Y269637D01*
X209132Y269137D01*
X131977D01*
X128192Y272922D01*
Y335988D01*
X128692Y336167D01*
X129471Y335219D01*
X130580Y334308D01*
X131845Y333632D01*
X133218Y333216D01*
X134646Y333075D01*
X136074Y333216D01*
X137446Y333632D01*
X138712Y334308D01*
X139821Y335219D01*
X140731Y336328D01*
X141407Y337593D01*
X141824Y338966D01*
X141964Y340394D01*
X141824Y341822D01*
X141555Y342709D01*
X141852Y343110D01*
X141929D01*
Y357677D01*
X128192D01*
Y432196D01*
X128828Y432832D01*
X131854D01*
X132532Y432275D01*
X133729Y431635D01*
X135027Y431241D01*
X136378Y431108D01*
X137729Y431241D01*
X139027Y431635D01*
X140224Y432275D01*
X141012Y432922D01*
X141378Y433088D01*
X141744Y432922D01*
X142532Y432275D01*
X143729Y431635D01*
X145027Y431241D01*
X146378Y431108D01*
X147729Y431241D01*
X149027Y431635D01*
X150224Y432275D01*
X151012Y432922D01*
X151378Y433088D01*
X151744Y432922D01*
X152532Y432275D01*
X153729Y431635D01*
X155027Y431241D01*
X156378Y431108D01*
X157729Y431241D01*
X159027Y431635D01*
X160224Y432275D01*
X161012Y432922D01*
X161378Y433088D01*
X161744Y432922D01*
X162532Y432275D01*
X163729Y431635D01*
X165027Y431241D01*
X166378Y431108D01*
X167729Y431241D01*
X169027Y431635D01*
X170224Y432275D01*
X171273Y433136D01*
X172134Y434185D01*
X172774Y435382D01*
X173168Y436681D01*
X173301Y438031D01*
X173168Y439382D01*
X172774Y440681D01*
X172134Y441878D01*
X171342Y442843D01*
Y448976D01*
X171173Y450261D01*
X170677Y451458D01*
X169888Y452486D01*
X159689Y462685D01*
X159881Y463146D01*
X249007D01*
Y460876D01*
X249187Y459969D01*
X249701Y459199D01*
X250471Y458685D01*
X251378Y458505D01*
X252285Y458685D01*
X253055Y459199D01*
X253569Y459969D01*
X253749Y460876D01*
Y463146D01*
X276566D01*
Y460876D01*
X276746Y459969D01*
X277260Y459199D01*
X278030Y458685D01*
X278937Y458505D01*
X279844Y458685D01*
X280614Y459199D01*
X281128Y459969D01*
X281308Y460876D01*
Y463146D01*
X323383D01*
X323383Y104964D01*
D02*
G37*
%LPC*%
G36*
X275591Y454193D02*
X273622D01*
X272695Y454009D01*
X271910Y453484D01*
X271385Y452698D01*
X271201Y451772D01*
X271385Y450845D01*
X271910Y450060D01*
X272695Y449535D01*
X273622Y449350D01*
X275591D01*
X276517Y449535D01*
X277303Y450060D01*
X277828Y450845D01*
X278012Y451772D01*
X277828Y452698D01*
X277303Y453484D01*
X276517Y454009D01*
X275591Y454193D01*
D02*
G37*
G36*
X256693D02*
X254724D01*
X253798Y454009D01*
X253012Y453484D01*
X252487Y452698D01*
X252303Y451772D01*
X252487Y450845D01*
X253012Y450060D01*
X253798Y449535D01*
X254724Y449350D01*
X256693D01*
X257620Y449535D01*
X258405Y450060D01*
X258930Y450845D01*
X259114Y451772D01*
X258930Y452698D01*
X258405Y453484D01*
X257620Y454009D01*
X256693Y454193D01*
D02*
G37*
G36*
X253256Y445984D02*
Y443020D01*
X256220D01*
X256166Y443433D01*
X255813Y444285D01*
X255252Y445016D01*
X254521Y445577D01*
X253670Y445930D01*
X253256Y445984D01*
D02*
G37*
G36*
X252256D02*
X251842Y445930D01*
X250991Y445577D01*
X250260Y445016D01*
X249699Y444285D01*
X249346Y443433D01*
X249291Y443020D01*
X252256D01*
Y445984D01*
D02*
G37*
G36*
X256220Y442020D02*
X253256D01*
Y439055D01*
X253670Y439110D01*
X254521Y439462D01*
X255252Y440024D01*
X255813Y440755D01*
X256166Y441606D01*
X256220Y442020D01*
D02*
G37*
G36*
X252256D02*
X249291D01*
X249346Y441606D01*
X249699Y440755D01*
X250260Y440024D01*
X250991Y439462D01*
X251842Y439110D01*
X252256Y439055D01*
Y442020D01*
D02*
G37*
G36*
X303256Y439685D02*
Y436721D01*
X306220D01*
X306166Y437134D01*
X305813Y437986D01*
X305252Y438717D01*
X304521Y439278D01*
X303670Y439630D01*
X303256Y439685D01*
D02*
G37*
G36*
X302256D02*
X301842Y439630D01*
X300991Y439278D01*
X300260Y438717D01*
X299699Y437986D01*
X299346Y437134D01*
X299291Y436721D01*
X302256D01*
Y439685D01*
D02*
G37*
G36*
X306220Y435720D02*
X303256D01*
Y432756D01*
X303670Y432811D01*
X304521Y433163D01*
X305252Y433724D01*
X305813Y434455D01*
X306166Y435307D01*
X306220Y435720D01*
D02*
G37*
G36*
X302256D02*
X299291D01*
X299346Y435307D01*
X299699Y434455D01*
X300260Y433724D01*
X300991Y433163D01*
X301842Y432811D01*
X302256Y432756D01*
Y435720D01*
D02*
G37*
G36*
X166378Y414955D02*
X165027Y414822D01*
X163729Y414428D01*
X162532Y413788D01*
X161744Y413141D01*
X161378Y412975D01*
X161012Y413141D01*
X160224Y413788D01*
X159027Y414428D01*
X157729Y414822D01*
X156378Y414955D01*
X155027Y414822D01*
X153729Y414428D01*
X152532Y413788D01*
X151744Y413141D01*
X151378Y412975D01*
X151012Y413141D01*
X150224Y413788D01*
X149027Y414428D01*
X147729Y414822D01*
X146378Y414955D01*
X145027Y414822D01*
X143768Y414439D01*
X143639Y414445D01*
X143268Y414668D01*
Y414921D01*
X129488D01*
Y401142D01*
X143268D01*
Y401396D01*
X143639Y401618D01*
X143768Y401623D01*
X145027Y401241D01*
X146378Y401108D01*
X147729Y401241D01*
X149027Y401635D01*
X150224Y402275D01*
X151012Y402922D01*
X151378Y403088D01*
X151744Y402922D01*
X152532Y402275D01*
X153729Y401635D01*
X155027Y401241D01*
X156378Y401108D01*
X157729Y401241D01*
X159027Y401635D01*
X160224Y402275D01*
X161012Y402922D01*
X161378Y403088D01*
X161744Y402922D01*
X162532Y402275D01*
X163729Y401635D01*
X165027Y401241D01*
X166378Y401108D01*
X167729Y401241D01*
X169027Y401635D01*
X170224Y402275D01*
X171273Y403136D01*
X172134Y404185D01*
X172774Y405382D01*
X173168Y406681D01*
X173301Y408032D01*
X173168Y409382D01*
X172774Y410681D01*
X172134Y411878D01*
X171273Y412927D01*
X170224Y413788D01*
X169027Y414428D01*
X167729Y414822D01*
X166378Y414955D01*
D02*
G37*
G36*
X214173Y458806D02*
X211468Y458654D01*
X208797Y458200D01*
X206194Y457450D01*
X203691Y456413D01*
X201319Y455103D01*
X199110Y453535D01*
X197090Y451729D01*
X195284Y449709D01*
X193716Y447500D01*
X192406Y445128D01*
X191369Y442625D01*
X190619Y440022D01*
X190165Y437351D01*
X190013Y434646D01*
X190165Y431941D01*
X190619Y429270D01*
X191369Y426666D01*
X192406Y424163D01*
X193716Y421792D01*
X195284Y419582D01*
X197090Y417562D01*
X199110Y415757D01*
X201319Y414189D01*
X203691Y412878D01*
X206194Y411841D01*
X208797Y411091D01*
X211468Y410638D01*
X214173Y410486D01*
X216878Y410638D01*
X219549Y411091D01*
X222153Y411841D01*
X224656Y412878D01*
X227027Y414189D01*
X229237Y415757D01*
X231257Y417562D01*
X233062Y419582D01*
X234630Y421792D01*
X235941Y424163D01*
X236978Y426666D01*
X237727Y429270D01*
X238181Y431941D01*
X238333Y434646D01*
X238181Y437351D01*
X237727Y440022D01*
X236978Y442625D01*
X235941Y445128D01*
X234630Y447500D01*
X233062Y449709D01*
X231257Y451729D01*
X229237Y453535D01*
X227027Y455103D01*
X224656Y456413D01*
X222153Y457450D01*
X219549Y458200D01*
X216878Y458654D01*
X214173Y458806D01*
D02*
G37*
G36*
X270972Y409370D02*
Y406405D01*
X273937D01*
X273882Y406819D01*
X273530Y407671D01*
X272969Y408402D01*
X272237Y408963D01*
X271386Y409315D01*
X270972Y409370D01*
D02*
G37*
G36*
X269972D02*
X269559Y409315D01*
X268707Y408963D01*
X267976Y408402D01*
X267415Y407671D01*
X267062Y406819D01*
X267008Y406405D01*
X269972D01*
Y409370D01*
D02*
G37*
G36*
X273937Y405406D02*
X270972D01*
Y402441D01*
X271386Y402496D01*
X272237Y402848D01*
X272969Y403409D01*
X273530Y404140D01*
X273882Y404992D01*
X273937Y405406D01*
D02*
G37*
G36*
X269972D02*
X267008D01*
X267062Y404992D01*
X267415Y404140D01*
X267976Y403409D01*
X268707Y402848D01*
X269559Y402496D01*
X269972Y402441D01*
Y405406D01*
D02*
G37*
G36*
X280815Y380236D02*
Y377272D01*
X283779D01*
X283725Y377685D01*
X283372Y378537D01*
X282811Y379268D01*
X282080Y379829D01*
X281229Y380182D01*
X280815Y380236D01*
D02*
G37*
G36*
X279815D02*
X279401Y380182D01*
X278550Y379829D01*
X277819Y379268D01*
X277258Y378537D01*
X276905Y377685D01*
X276851Y377272D01*
X279815D01*
Y380236D01*
D02*
G37*
G36*
X283779Y376272D02*
X280815D01*
Y373307D01*
X281229Y373362D01*
X282080Y373714D01*
X282811Y374275D01*
X283372Y375007D01*
X283725Y375858D01*
X283779Y376272D01*
D02*
G37*
G36*
X279815D02*
X276851D01*
X276905Y375858D01*
X277258Y375007D01*
X277819Y374275D01*
X278550Y373714D01*
X279401Y373362D01*
X279815Y373307D01*
Y376272D01*
D02*
G37*
G36*
X271263Y324772D02*
X269472Y324595D01*
X267750Y324073D01*
X266162Y323224D01*
X264771Y322083D01*
X263629Y320691D01*
X262781Y319104D01*
X262258Y317382D01*
X262082Y315591D01*
X262258Y313799D01*
X262781Y312077D01*
X263629Y310490D01*
X264771Y309099D01*
X266162Y307957D01*
X267750Y307108D01*
X269472Y306586D01*
X271263Y306409D01*
X273054Y306586D01*
X274777Y307108D01*
X276364Y307957D01*
X277755Y309099D01*
X278897Y310490D01*
X279746Y312077D01*
X280268Y313799D01*
X280444Y315591D01*
X280268Y317382D01*
X279746Y319104D01*
X278897Y320691D01*
X277755Y322083D01*
X276364Y323224D01*
X274777Y324073D01*
X273054Y324595D01*
X271263Y324772D01*
D02*
G37*
G36*
X157083D02*
X155292Y324595D01*
X153570Y324073D01*
X151982Y323224D01*
X150591Y322083D01*
X149449Y320691D01*
X148601Y319104D01*
X148078Y317382D01*
X147902Y315591D01*
X148078Y313799D01*
X148601Y312077D01*
X149449Y310490D01*
X150591Y309099D01*
X151982Y307957D01*
X153570Y307108D01*
X155292Y306586D01*
X157083Y306409D01*
X158874Y306586D01*
X160597Y307108D01*
X162184Y307957D01*
X163575Y309099D01*
X164717Y310490D01*
X165566Y312077D01*
X166088Y313799D01*
X166264Y315591D01*
X166088Y317382D01*
X165566Y319104D01*
X164717Y320691D01*
X163575Y322083D01*
X162184Y323224D01*
X160597Y324073D01*
X158874Y324595D01*
X157083Y324772D01*
D02*
G37*
G36*
X291051Y292834D02*
Y289870D01*
X294016D01*
X293961Y290284D01*
X293608Y291135D01*
X293047Y291866D01*
X292316Y292427D01*
X291465Y292780D01*
X291051Y292834D01*
D02*
G37*
G36*
X290051D02*
X289637Y292780D01*
X288786Y292427D01*
X288055Y291866D01*
X287494Y291135D01*
X287141Y290284D01*
X287087Y289870D01*
X290051D01*
Y292834D01*
D02*
G37*
G36*
X294016Y288870D02*
X291051D01*
Y285906D01*
X291465Y285960D01*
X292316Y286313D01*
X293047Y286874D01*
X293608Y287605D01*
X293961Y288456D01*
X294016Y288870D01*
D02*
G37*
G36*
X290051D02*
X287087D01*
X287141Y288456D01*
X287494Y287605D01*
X288055Y286874D01*
X288786Y286313D01*
X289637Y285960D01*
X290051Y285906D01*
Y288870D01*
D02*
G37*
G36*
X203673Y280341D02*
X199423D01*
Y276091D01*
X203673D01*
Y280341D01*
D02*
G37*
G36*
Y275091D02*
X199423D01*
Y270841D01*
X203673D01*
Y275091D01*
D02*
G37*
G36*
X272492Y210209D02*
X268476D01*
X268566Y209523D01*
X269024Y208417D01*
X269752Y207468D01*
X270701Y206740D01*
X271806Y206282D01*
X272492Y206192D01*
Y210209D01*
D02*
G37*
G36*
X277509D02*
X273492D01*
Y206192D01*
X274178Y206282D01*
X275283Y206740D01*
X276233Y207468D01*
X276961Y208417D01*
X277418Y209523D01*
X277509Y210209D01*
D02*
G37*
G36*
X316339Y220158D02*
X301772D01*
Y205591D01*
X301848D01*
X302146Y205189D01*
X301877Y204302D01*
X301736Y202874D01*
X301877Y201446D01*
X302293Y200073D01*
X302970Y198808D01*
X303880Y197699D01*
X304989Y196789D01*
X306254Y196112D01*
X307627Y195696D01*
X309055Y195555D01*
X310483Y195696D01*
X311856Y196112D01*
X313121Y196789D01*
X314230Y197699D01*
X315140Y198808D01*
X315817Y200073D01*
X316233Y201446D01*
X316374Y202874D01*
X316233Y204302D01*
X315964Y205189D01*
X316262Y205591D01*
X316339D01*
Y220158D01*
D02*
G37*
G36*
X184646Y170509D02*
X183179Y170364D01*
X181769Y169937D01*
X180470Y169242D01*
X179331Y168307D01*
X178396Y167168D01*
X177701Y165869D01*
X177274Y164459D01*
X177129Y162992D01*
X177274Y161526D01*
X177701Y160116D01*
X178396Y158816D01*
X179331Y157677D01*
X180470Y156742D01*
X181769Y156048D01*
X183179Y155620D01*
X184646Y155476D01*
X186112Y155620D01*
X187522Y156048D01*
X188822Y156742D01*
X189961Y157677D01*
X190895Y158816D01*
X191590Y160116D01*
X192018Y161526D01*
X192162Y162992D01*
X192018Y164459D01*
X191590Y165869D01*
X190895Y167168D01*
X189961Y168307D01*
X188822Y169242D01*
X187522Y169937D01*
X186112Y170364D01*
X184646Y170509D01*
D02*
G37*
G36*
X306693Y170115D02*
X305226Y169971D01*
X303817Y169543D01*
X302517Y168848D01*
X301378Y167913D01*
X300443Y166774D01*
X299749Y165475D01*
X299321Y164065D01*
X299176Y162598D01*
X299321Y161132D01*
X299749Y159722D01*
X300443Y158423D01*
X301378Y157283D01*
X302517Y156349D01*
X303817Y155654D01*
X305226Y155226D01*
X306693Y155082D01*
X308159Y155226D01*
X309569Y155654D01*
X310869Y156349D01*
X312008Y157283D01*
X312943Y158423D01*
X313637Y159722D01*
X314065Y161132D01*
X314209Y162598D01*
X314065Y164065D01*
X313637Y165475D01*
X312943Y166774D01*
X312008Y167913D01*
X310869Y168848D01*
X309569Y169543D01*
X308159Y169971D01*
X306693Y170115D01*
D02*
G37*
G36*
X214173Y157625D02*
X211468Y157473D01*
X208797Y157019D01*
X206194Y156269D01*
X203691Y155232D01*
X201319Y153921D01*
X199110Y152354D01*
X197090Y150548D01*
X195284Y148528D01*
X193716Y146318D01*
X192561Y144229D01*
X192074Y144381D01*
X192162Y145276D01*
X192018Y146742D01*
X191590Y148152D01*
X190895Y149451D01*
X189961Y150591D01*
X188822Y151525D01*
X187522Y152220D01*
X186112Y152648D01*
X184646Y152792D01*
X183179Y152648D01*
X181769Y152220D01*
X180470Y151525D01*
X179331Y150591D01*
X178396Y149451D01*
X177701Y148152D01*
X177274Y146742D01*
X177129Y145276D01*
X177274Y143809D01*
X177701Y142399D01*
X178396Y141100D01*
X179331Y139961D01*
X180470Y139026D01*
X181769Y138331D01*
X183179Y137903D01*
X184646Y137759D01*
X186112Y137903D01*
X187522Y138331D01*
X188822Y139026D01*
X189961Y139961D01*
X190670Y140825D01*
X191122Y140588D01*
X190619Y138841D01*
X190165Y136170D01*
X190013Y133465D01*
X190165Y130760D01*
X190619Y128088D01*
X191369Y125485D01*
X192406Y122982D01*
X193716Y120611D01*
X195284Y118401D01*
X197090Y116381D01*
X199110Y114576D01*
X201319Y113008D01*
X203691Y111697D01*
X206194Y110660D01*
X208797Y109910D01*
X211468Y109456D01*
X214173Y109304D01*
X216878Y109456D01*
X219549Y109910D01*
X222153Y110660D01*
X224656Y111697D01*
X227027Y113008D01*
X229237Y114576D01*
X231257Y116381D01*
X233062Y118401D01*
X234630Y120611D01*
X235941Y122982D01*
X236978Y125485D01*
X237727Y128088D01*
X238181Y130760D01*
X238333Y133465D01*
X238181Y136170D01*
X237727Y138841D01*
X236978Y141444D01*
X235941Y143947D01*
X234630Y146318D01*
X233062Y148528D01*
X231257Y150548D01*
X229237Y152354D01*
X227027Y153921D01*
X224656Y155232D01*
X222153Y156269D01*
X219549Y157019D01*
X216878Y157473D01*
X214173Y157625D01*
D02*
G37*
G36*
X264173Y148068D02*
X262707Y147923D01*
X261297Y147495D01*
X259997Y146801D01*
X258858Y145866D01*
X257924Y144727D01*
X257229Y143428D01*
X256801Y142018D01*
X256657Y140551D01*
X256801Y139085D01*
X257229Y137675D01*
X257924Y136375D01*
X258858Y135236D01*
X259997Y134301D01*
X261297Y133607D01*
X262707Y133179D01*
X264173Y133035D01*
X265640Y133179D01*
X267050Y133607D01*
X268349Y134301D01*
X269488Y135236D01*
X270423Y136375D01*
X271118Y137675D01*
X271545Y139085D01*
X271690Y140551D01*
X271545Y142018D01*
X271118Y143428D01*
X270423Y144727D01*
X269488Y145866D01*
X268349Y146801D01*
X267050Y147495D01*
X265640Y147923D01*
X264173Y148068D01*
D02*
G37*
G36*
X144488Y141569D02*
X143138Y141436D01*
X141839Y141042D01*
X140642Y140402D01*
X139593Y139541D01*
X138732Y138492D01*
X138092Y137295D01*
X137698Y135996D01*
X137565Y134646D01*
X137698Y133295D01*
X138092Y131996D01*
X138732Y130799D01*
X139593Y129750D01*
X140642Y128889D01*
X141839Y128250D01*
X143138Y127856D01*
X144488Y127723D01*
X145839Y127856D01*
X147137Y128250D01*
X148334Y128889D01*
X149383Y129750D01*
X150244Y130799D01*
X150884Y131996D01*
X151278Y133295D01*
X151411Y134646D01*
X151278Y135996D01*
X150884Y137295D01*
X150244Y138492D01*
X149383Y139541D01*
X148334Y140402D01*
X147137Y141042D01*
X145839Y141436D01*
X144488Y141569D01*
D02*
G37*
G36*
X293898Y141175D02*
X292547Y141042D01*
X291248Y140648D01*
X290051Y140008D01*
X289002Y139147D01*
X288141Y138098D01*
X287502Y136901D01*
X287108Y135603D01*
X286975Y134252D01*
X287108Y132901D01*
X287502Y131603D01*
X288141Y130406D01*
X289002Y129357D01*
X290051Y128496D01*
X291248Y127856D01*
X292547Y127462D01*
X293898Y127329D01*
X295248Y127462D01*
X296547Y127856D01*
X297744Y128496D01*
X298793Y129357D01*
X299654Y130406D01*
X300294Y131603D01*
X300688Y132901D01*
X300821Y134252D01*
X300688Y135603D01*
X300294Y136901D01*
X299654Y138098D01*
X298793Y139147D01*
X297744Y140008D01*
X296547Y140648D01*
X295248Y141042D01*
X293898Y141175D01*
D02*
G37*
G36*
X115354Y132713D02*
X113888Y132569D01*
X112478Y132141D01*
X111178Y131447D01*
X110039Y130512D01*
X109105Y129373D01*
X108410Y128073D01*
X107982Y126663D01*
X107838Y125197D01*
X107982Y123731D01*
X108410Y122320D01*
X109105Y121021D01*
X110039Y119882D01*
X111178Y118947D01*
X112478Y118253D01*
X113888Y117825D01*
X115354Y117680D01*
X116821Y117825D01*
X118231Y118253D01*
X119530Y118947D01*
X120669Y119882D01*
X121604Y121021D01*
X122299Y122320D01*
X122726Y123731D01*
X122871Y125197D01*
X122726Y126663D01*
X122299Y128073D01*
X121604Y129373D01*
X120669Y130512D01*
X119530Y131447D01*
X118231Y132141D01*
X116821Y132569D01*
X115354Y132713D01*
D02*
G37*
G36*
X264173Y131926D02*
X262707Y131781D01*
X261297Y131354D01*
X259997Y130659D01*
X258858Y129724D01*
X257924Y128585D01*
X257229Y127286D01*
X256801Y125876D01*
X256657Y124409D01*
X256801Y122943D01*
X257229Y121533D01*
X257924Y120234D01*
X258858Y119095D01*
X259997Y118160D01*
X261297Y117465D01*
X262707Y117037D01*
X264173Y116893D01*
X265640Y117037D01*
X267050Y117465D01*
X268349Y118160D01*
X269488Y119095D01*
X270423Y120234D01*
X271118Y121533D01*
X271545Y122943D01*
X271690Y124409D01*
X271545Y125876D01*
X271118Y127286D01*
X270423Y128585D01*
X269488Y129724D01*
X268349Y130659D01*
X267050Y131354D01*
X265640Y131781D01*
X264173Y131926D01*
D02*
G37*
G36*
X120579Y116850D02*
Y113886D01*
X123543D01*
X123489Y114299D01*
X123136Y115151D01*
X122575Y115882D01*
X121844Y116443D01*
X120992Y116796D01*
X120579Y116850D01*
D02*
G37*
G36*
X119579D02*
X119165Y116796D01*
X118314Y116443D01*
X117582Y115882D01*
X117022Y115151D01*
X116669Y114299D01*
X116614Y113886D01*
X119579D01*
Y116850D01*
D02*
G37*
G36*
X267429Y116456D02*
Y113492D01*
X270393D01*
X270339Y113906D01*
X269986Y114757D01*
X269425Y115488D01*
X268694Y116049D01*
X267843Y116402D01*
X267429Y116456D01*
D02*
G37*
G36*
X266429D02*
X266016Y116402D01*
X265164Y116049D01*
X264433Y115488D01*
X263872Y114757D01*
X263519Y113906D01*
X263465Y113492D01*
X266429D01*
Y116456D01*
D02*
G37*
G36*
X123543Y112886D02*
X120579D01*
Y109922D01*
X120992Y109976D01*
X121844Y110329D01*
X122575Y110890D01*
X123136Y111621D01*
X123489Y112472D01*
X123543Y112886D01*
D02*
G37*
G36*
X119579D02*
X116614D01*
X116669Y112472D01*
X117022Y111621D01*
X117582Y110890D01*
X118314Y110329D01*
X119165Y109976D01*
X119579Y109922D01*
Y112886D01*
D02*
G37*
G36*
X270393Y112492D02*
X267429D01*
Y109528D01*
X267843Y109582D01*
X268694Y109935D01*
X269425Y110496D01*
X269986Y111227D01*
X270339Y112078D01*
X270393Y112492D01*
D02*
G37*
G36*
X266429D02*
X263465D01*
X263519Y112078D01*
X263872Y111227D01*
X264433Y110496D01*
X265164Y109935D01*
X266016Y109582D01*
X266429Y109528D01*
Y112492D01*
D02*
G37*
%LPD*%
D23*
X144488Y107087D02*
D03*
Y134646D02*
D03*
X293898Y106693D02*
D03*
Y134252D02*
D03*
X156378Y408032D02*
D03*
X146378D02*
D03*
X166378D02*
D03*
Y438031D02*
D03*
X156378D02*
D03*
X146378D02*
D03*
X136378D02*
D03*
D54*
X214173Y283858D02*
X219685Y289370D01*
X214173Y275590D02*
Y283858D01*
X219685Y289370D02*
X271654D01*
X288189Y272835D01*
Y198819D02*
Y272835D01*
X282677Y193307D02*
X288189Y198819D01*
X209055Y193307D02*
X282677D01*
X107480Y451181D02*
X116929Y460630D01*
X154724D02*
X166378Y448976D01*
X116929Y460630D02*
X154724D01*
X166378Y438031D02*
Y448976D01*
X112992Y447638D02*
X120472Y455118D01*
X149213D02*
X156378Y447953D01*
X120472Y455118D02*
X149213D01*
X156378Y438031D02*
Y447953D01*
X118110Y444882D02*
X123228Y450000D01*
X142126D02*
X146457Y445669D01*
X123228Y450000D02*
X142126D01*
X146457Y438110D02*
Y445669D01*
X112992Y264173D02*
Y447638D01*
X118110Y268110D02*
Y444882D01*
X112992Y264173D02*
X122441Y254724D01*
X136142Y437795D02*
X136378Y438031D01*
X126772Y437795D02*
X136142D01*
X123228Y270866D02*
Y434252D01*
X126772Y437795D01*
X123228Y270866D02*
X129921Y264173D01*
X223622D01*
X232992Y254803D01*
Y240709D02*
Y254803D01*
X222992Y240709D02*
Y251417D01*
X126772Y259449D02*
X214961D01*
X222992Y251417D01*
X118110Y268110D02*
X126772Y259449D01*
X146378Y438031D02*
X146457Y438110D01*
X212992Y240709D02*
Y249606D01*
X207874Y254724D02*
X212992Y249606D01*
X122441Y254724D02*
X207874D01*
X202362Y241339D02*
Y247638D01*
X107480Y261024D02*
Y451181D01*
X118110Y250394D02*
X199606D01*
X202362Y247638D01*
X107480Y261024D02*
X118110Y250394D01*
X202362Y241339D02*
X202992Y240709D01*
Y187244D02*
X209055Y193307D01*
X202992Y180709D02*
Y187244D01*
D56*
X184646Y162992D02*
D03*
X154173Y235709D02*
D03*
Y225709D02*
D03*
Y215709D02*
D03*
Y205709D02*
D03*
Y195709D02*
D03*
Y185709D02*
D03*
X197492Y229209D02*
D03*
X207492D02*
D03*
X272992Y210709D02*
D03*
Y220709D02*
D03*
Y230709D02*
D03*
Y240709D02*
D03*
X262992D02*
D03*
X252992D02*
D03*
X242992D02*
D03*
X232992D02*
D03*
X222992D02*
D03*
X212992D02*
D03*
X202992D02*
D03*
X192992D02*
D03*
X182992D02*
D03*
X172992D02*
D03*
X162992D02*
D03*
X272992Y180709D02*
D03*
X262992D02*
D03*
X252992D02*
D03*
X242992D02*
D03*
X232992D02*
D03*
X222992D02*
D03*
X212992D02*
D03*
X202992D02*
D03*
X192992D02*
D03*
X182992D02*
D03*
X172992D02*
D03*
X264173Y124409D02*
D03*
Y140551D02*
D03*
X184646Y145276D02*
D03*
X115354Y125197D02*
D03*
X306693Y162598D02*
D03*
D57*
X214173Y434646D02*
D03*
Y133465D02*
D03*
D58*
X204173Y275590D02*
D03*
D59*
X214173D02*
D03*
X224173D02*
D03*
D60*
X271263Y315591D02*
D03*
X157083D02*
D03*
D61*
X134646Y350394D02*
D03*
X309055Y212874D02*
D03*
D62*
X134646Y340394D02*
D03*
X309055Y202874D02*
D03*
D63*
X162992Y180709D02*
D03*
D64*
X251378Y462402D02*
D03*
X278937D02*
D03*
D65*
X255709Y451772D02*
D03*
X274606D02*
D03*
D66*
X136378Y408032D02*
D03*
D67*
X252756Y442520D02*
D03*
X290551Y289370D02*
D03*
X270472Y405905D02*
D03*
X302756Y436221D02*
D03*
X280315Y376772D02*
D03*
X120079Y113386D02*
D03*
X266929Y112992D02*
D03*
M02*
