G04*
G04 #@! TF.GenerationSoftware,Altium Limited,Altium Designer,20.0.10 (225)*
G04*
G04 Layer_Color=16711935*
%FSLAX25Y25*%
%MOIN*%
G70*
G01*
G75*
%ADD11C,0.01000*%
%ADD17C,0.00600*%
%ADD54C,0.01968*%
D11*
X100000Y481496D02*
X106000Y483496D01*
X100000Y481496D02*
X106000Y479496D01*
X322346D02*
X328346Y481496D01*
X322346Y483496D02*
X328346Y481496D01*
X100000D02*
X183982D01*
X241164D02*
X328346D01*
X100000Y470094D02*
Y482496D01*
X328346Y470094D02*
Y482496D01*
X338158Y106000D02*
X340158Y100000D01*
X342158Y106000D01*
X340158Y468110D02*
X342158Y462110D01*
X338158D02*
X340158Y468110D01*
Y100000D02*
Y253864D01*
Y311046D02*
Y468110D01*
X330331Y100000D02*
X341158D01*
X330331Y468110D02*
X341158D01*
D17*
X189581Y483895D02*
X185582D01*
Y480896D01*
X187581Y481896D01*
X188581D01*
X189581Y480896D01*
Y478897D01*
X188581Y477897D01*
X186582D01*
X185582Y478897D01*
X191580Y482895D02*
X192580Y483895D01*
X194579D01*
X195579Y482895D01*
Y481896D01*
X194579Y480896D01*
X195579Y479896D01*
Y478897D01*
X194579Y477897D01*
X192580D01*
X191580Y478897D01*
Y479896D01*
X192580Y480896D01*
X191580Y481896D01*
Y482895D01*
X192580Y480896D02*
X194579D01*
X197578Y477897D02*
Y478897D01*
X198578D01*
Y477897D01*
X197578D01*
X202576Y482895D02*
X203576Y483895D01*
X205575D01*
X206575Y482895D01*
Y478897D01*
X205575Y477897D01*
X203576D01*
X202576Y478897D01*
Y482895D01*
X208575D02*
X209574Y483895D01*
X211574D01*
X212573Y482895D01*
Y478897D01*
X211574Y477897D01*
X209574D01*
X208575Y478897D01*
Y482895D01*
X222570Y477897D02*
X220571Y479896D01*
Y481896D01*
X222570Y483895D01*
X225569Y477897D02*
Y481896D01*
X226569D01*
X227568Y480896D01*
Y477897D01*
Y480896D01*
X228568Y481896D01*
X229568Y480896D01*
Y477897D01*
X231567D02*
Y481896D01*
X232567D01*
X233566Y480896D01*
Y477897D01*
Y480896D01*
X234566Y481896D01*
X235566Y480896D01*
Y477897D01*
X237565D02*
X239564Y479896D01*
Y481896D01*
X237565Y483895D01*
X342757Y255464D02*
X343757Y256464D01*
Y258463D01*
X342757Y259463D01*
X338758D01*
X337758Y258463D01*
Y256464D01*
X338758Y255464D01*
X339758D01*
X340757Y256464D01*
Y259463D01*
X338758Y261462D02*
X337758Y262462D01*
Y264461D01*
X338758Y265461D01*
X339758D01*
X340757Y264461D01*
Y263461D01*
Y264461D01*
X341757Y265461D01*
X342757D01*
X343757Y264461D01*
Y262462D01*
X342757Y261462D01*
X343757Y267460D02*
X342757D01*
Y268460D01*
X343757D01*
Y267460D01*
X337758Y276457D02*
Y272458D01*
X340757D01*
X339758Y274458D01*
Y275457D01*
X340757Y276457D01*
X342757D01*
X343757Y275457D01*
Y273458D01*
X342757Y272458D01*
X338758Y278456D02*
X337758Y279456D01*
Y281455D01*
X338758Y282455D01*
X342757D01*
X343757Y281455D01*
Y279456D01*
X342757Y278456D01*
X338758D01*
X343757Y292452D02*
X341757Y290453D01*
X339758D01*
X337758Y292452D01*
X343757Y295451D02*
X339758D01*
Y296451D01*
X340757Y297450D01*
X343757D01*
X340757D01*
X339758Y298450D01*
X340757Y299450D01*
X343757D01*
Y301449D02*
X339758D01*
Y302449D01*
X340757Y303448D01*
X343757D01*
X340757D01*
X339758Y304448D01*
X340757Y305448D01*
X343757D01*
Y307447D02*
X341757Y309446D01*
X339758D01*
X337758Y307447D01*
D54*
X100000Y100000D02*
Y468110D01*
X328346D01*
X328346Y100000D01*
X100000D02*
X328346D01*
M02*
