G04*
G04 #@! TF.GenerationSoftware,Altium Limited,Altium Designer,20.0.10 (225)*
G04*
G04 Layer_Color=8388736*
%FSLAX25Y25*%
%MOIN*%
G70*
G01*
G75*
%ADD29R,0.20488X0.08677*%
%ADD30R,0.12611X0.06706*%
%ADD31R,0.12611X0.08674*%
%ADD32C,0.06535*%
%ADD33R,0.05100X0.05200*%
%ADD34R,0.06312X0.04737*%
%ADD35R,0.06706X0.06902*%
%ADD36R,0.01975X0.07093*%
%ADD37R,0.04619X0.11942*%
%ADD38R,0.22965X0.25800*%
%ADD39C,0.07717*%
%ADD40C,0.16548*%
%ADD41R,0.08300X0.08300*%
%ADD42C,0.08300*%
%ADD43C,0.11200*%
%ADD44R,0.07493X0.07493*%
%ADD45C,0.07493*%
%ADD46C,0.07890*%
%ADD47R,0.07890X0.07890*%
%ADD48C,0.06706*%
%ADD49O,0.03851X0.06902*%
%ADD50O,0.05518X0.03550*%
%ADD51R,0.06706X0.06706*%
G36*
X250882Y458961D02*
X250780Y458968D01*
X250677Y458980D01*
X250575Y459000D01*
X250476Y459024D01*
X250374Y459051D01*
X250279Y459087D01*
X250185Y459126D01*
X250091Y459169D01*
X250000Y459221D01*
X249913Y459276D01*
X249827Y459331D01*
X249744Y459394D01*
X249665Y459461D01*
X249591Y459531D01*
X249520Y459606D01*
X249453Y459685D01*
X249390Y459768D01*
X249335Y459854D01*
X249279Y459941D01*
X249228Y460032D01*
X249185Y460126D01*
X249146Y460220D01*
X249110Y460315D01*
X249083Y460417D01*
X249059Y460516D01*
X249039Y460618D01*
X249028Y460720D01*
X249020Y460823D01*
X249016Y460925D01*
Y463878D01*
X249020Y463980D01*
X249028Y464083D01*
X249039Y464185D01*
X249059Y464287D01*
X249083Y464386D01*
X249110Y464488D01*
X249146Y464583D01*
X249185Y464677D01*
X249228Y464772D01*
X249279Y464862D01*
X249335Y464949D01*
X249390Y465035D01*
X249453Y465118D01*
X249520Y465197D01*
X249591Y465272D01*
X249665Y465343D01*
X249744Y465410D01*
X249827Y465473D01*
X249913Y465528D01*
X250000Y465583D01*
X250091Y465634D01*
X250185Y465677D01*
X250279Y465717D01*
X250374Y465752D01*
X250476Y465779D01*
X250575Y465803D01*
X250677Y465823D01*
X250780Y465835D01*
X250882Y465842D01*
X250984Y465846D01*
X256496D01*
Y458957D01*
X250984D01*
X250882Y458961D01*
D02*
G37*
G36*
X273819Y465846D02*
X279331D01*
X279433Y465842D01*
X279535Y465835D01*
X279638Y465823D01*
X279740Y465803D01*
X279839Y465779D01*
X279941Y465752D01*
X280035Y465717D01*
X280130Y465677D01*
X280224Y465634D01*
X280315Y465583D01*
X280402Y465528D01*
X280488Y465473D01*
X280571Y465410D01*
X280650Y465343D01*
X280724Y465272D01*
X280795Y465197D01*
X280862Y465118D01*
X280925Y465035D01*
X280980Y464949D01*
X281035Y464862D01*
X281087Y464772D01*
X281130Y464677D01*
X281169Y464583D01*
X281205Y464488D01*
X281232Y464386D01*
X281256Y464287D01*
X281276Y464185D01*
X281287Y464083D01*
X281295Y463980D01*
X281299Y463878D01*
Y460925D01*
X281295Y460823D01*
X281287Y460720D01*
X281276Y460618D01*
X281256Y460516D01*
X281232Y460417D01*
X281205Y460315D01*
X281169Y460220D01*
X281130Y460126D01*
X281087Y460032D01*
X281035Y459941D01*
X280980Y459854D01*
X280925Y459768D01*
X280862Y459685D01*
X280795Y459606D01*
X280724Y459531D01*
X280650Y459461D01*
X280571Y459394D01*
X280488Y459331D01*
X280402Y459276D01*
X280315Y459221D01*
X280224Y459169D01*
X280130Y459126D01*
X280035Y459087D01*
X279941Y459051D01*
X279839Y459024D01*
X279740Y459000D01*
X279638Y458980D01*
X279535Y458968D01*
X279433Y458961D01*
X279331Y458957D01*
X273819D01*
Y465846D01*
D02*
G37*
D29*
X297927Y376882D02*
D03*
Y407197D02*
D03*
D30*
X131693Y140945D02*
D03*
Y125197D02*
D03*
Y113386D02*
D03*
X157283Y145276D02*
D03*
X281102Y140551D02*
D03*
Y124803D02*
D03*
Y112992D02*
D03*
X306693Y144882D02*
D03*
D31*
X263386Y162992D02*
D03*
X243701D02*
D03*
X203543D02*
D03*
X223228D02*
D03*
X290158Y436221D02*
D03*
X270472D02*
D03*
D32*
X309055Y285827D02*
D03*
X257480Y421654D02*
D03*
D33*
X309055Y267717D02*
D03*
Y274803D02*
D03*
X299213Y274803D02*
D03*
Y267717D02*
D03*
X290551Y297638D02*
D03*
Y304724D02*
D03*
X270472Y421654D02*
D03*
Y414567D02*
D03*
X136811Y377559D02*
D03*
Y384646D02*
D03*
X146654Y377559D02*
D03*
Y384646D02*
D03*
X156496Y377559D02*
D03*
Y384646D02*
D03*
X166732Y377559D02*
D03*
Y384646D02*
D03*
D34*
X299606Y297441D02*
D03*
Y304921D02*
D03*
X309055Y301181D02*
D03*
D35*
X261221Y462402D02*
D03*
X269094D02*
D03*
D36*
X260039Y451083D02*
D03*
X262598D02*
D03*
X265158D02*
D03*
X267717D02*
D03*
X270276D02*
D03*
D37*
X290591Y319921D02*
D03*
X308622D02*
D03*
D38*
X299606Y345590D02*
D03*
D39*
X184646Y162992D02*
D03*
X264173Y124409D02*
D03*
Y140551D02*
D03*
X184646Y145276D02*
D03*
X115354Y125197D02*
D03*
X306693Y162598D02*
D03*
D40*
X214173Y434646D02*
D03*
Y133465D02*
D03*
D41*
X204173Y275590D02*
D03*
D42*
X214173D02*
D03*
X224173D02*
D03*
D43*
X271263Y315591D02*
D03*
X157083D02*
D03*
D44*
X134646Y350394D02*
D03*
X309055Y212874D02*
D03*
D45*
X134646Y340394D02*
D03*
X309055Y202874D02*
D03*
D46*
X154173Y235709D02*
D03*
Y225709D02*
D03*
Y215709D02*
D03*
Y205709D02*
D03*
Y195709D02*
D03*
Y185709D02*
D03*
X197492Y229209D02*
D03*
X207492D02*
D03*
X272992Y210709D02*
D03*
Y220709D02*
D03*
Y230709D02*
D03*
Y240709D02*
D03*
X262992D02*
D03*
X252992D02*
D03*
X242992D02*
D03*
X232992D02*
D03*
X222992D02*
D03*
X212992D02*
D03*
X202992D02*
D03*
X192992D02*
D03*
X182992D02*
D03*
X172992D02*
D03*
X162992D02*
D03*
X272992Y180709D02*
D03*
X262992D02*
D03*
X252992D02*
D03*
X242992D02*
D03*
X232992D02*
D03*
X222992D02*
D03*
X212992D02*
D03*
X202992D02*
D03*
X192992D02*
D03*
X182992D02*
D03*
X172992D02*
D03*
D47*
X162992D02*
D03*
D48*
X144488Y107087D02*
D03*
Y134646D02*
D03*
X293898Y106693D02*
D03*
Y134252D02*
D03*
X156378Y408032D02*
D03*
X146378D02*
D03*
X166378D02*
D03*
Y438031D02*
D03*
X156378D02*
D03*
X146378D02*
D03*
X136378D02*
D03*
D49*
X251378Y462402D02*
D03*
X278937D02*
D03*
D50*
X255709Y451772D02*
D03*
X274606D02*
D03*
D51*
X136378Y408032D02*
D03*
M02*
