M48
;Layer_Color=9474304
;FILE_FORMAT=2:5
INCH,TZ
;TYPE=PLATED
T3F00S00C0.02800
T4F00S00C0.03150
T5F00S00C0.03600
T6F00S00C0.03937
T7F00S00C0.04016
T8F00S00C0.08000
T9F00S00C0.15748
%
T03
X120079Y113386
X266929Y112992
X290551Y289370
X280315Y376772
X270472Y405905
X252756Y442520
X302756Y436221
T04
X136378Y408032
X146378
Y438031
X136378
X156378
X166378
Y408032
X156378
T05
X204173Y275590
X214173
X224173
T06
X115354Y125197
X184646Y145276
X264173Y140551
Y124409
X262992Y180709
X272992
X252992
X242992
X232992
X222992
X212992
X202992
X192992
X182992
X172992
X162992
X184646Y162992
X197492Y229209
X207492
X202992Y240709
X212992
X222992
X232992
X242992
X252992
X262992
X272992
Y230709
Y220709
Y210709
X306693Y162598
X192992Y240709
X182992
X172992
X162992
X154173Y235709
Y225709
Y215709
Y205709
Y195709
Y185709
T07
X309055Y202874
Y212874
X134646Y340394
Y350394
T08
X157083Y315591
X271263
T09
X214173Y133465
M30
